Coordinates
version=1
nRows=17
nColumns=36
inDegrees=yes

Units are S.I. units (second, meters, Newtons, ...)
If the header above contains a line with 'inDegrees', this indicates whether rotational values are in degrees (yes) or radians (no).

endheader
time	pelvis_tilt	pelvis_list	pelvis_rotation	pelvis_tx	pelvis_ty	pelvis_tz	hip_flexion_r	hip_adduction_r	hip_rotation_r	knee_angle_r	knee_angle_r_beta	ankle_angle_r	subtalar_angle_r	mtp_angle_r	hip_flexion_l	hip_adduction_l	hip_rotation_l	knee_angle_l	knee_angle_l_beta	ankle_angle_l	subtalar_angle_l	mtp_angle_l	lumbar_extension	lumbar_bending	lumbar_rotation	arm_flex_r	arm_add_r	arm_rot_r	elbow_flex_r	pro_sup_r	arm_flex_l	arm_add_l	arm_rot_l	elbow_flex_l	pro_sup_l
      3.88333330	      5.38390428	      4.19474126	      0.26901483	      1.13048292	      0.88452463	      0.06107466	     47.03196471	    -10.14823867	      5.94646743	     20.60916050	      0.35969771	     -1.52634116	      3.39992771	     -7.49999987	     11.55146434	     11.98580485	     -4.81022898	     37.57362734	      0.65578351	     18.75132008	    -14.55565619	     -7.49999987	    -14.90102100	    -10.97629421	     -1.66234621	     40.84066971	      4.14576398	     55.94144216	    124.85171695	     92.19321424	     45.73496774	     -2.44726138	     69.06031550	    125.55916201	     87.17097287
      3.90000000	      5.36803754	      4.73415848	      0.37710617	      1.13026770	      0.88136750	      0.06187032	     47.08262536	    -10.78546704	      6.30004774	     20.36578016	      0.35544992	     -1.85744059	      3.65753532	     -7.49999987	     11.95313227	     12.64021690	     -4.56652059	     38.32323602	      0.66886665	     19.29008202	    -14.30793720	     -7.49999987	    -15.21265975	    -11.45917013	     -1.83961111	     40.79314758	      4.15880633	     56.37147461	    124.52989794	     90.69357539	     45.45783580	     -3.23958450	     69.32240710	    124.83297878	     85.63097621
      3.91666670	      5.51106568	      5.22236101	      0.50351042	      1.12948312	      0.86997224	      0.06218758	     47.19290770	    -11.34380762	      6.92918936	     20.24283949	      0.35330420	     -2.31897923	      3.71009542	     -7.49999987	     12.61123870	     13.21262064	     -4.45177050	     39.63175877	      0.69170468	     19.92331936	    -14.39084367	     -7.49999987	    -15.61587956	    -11.97370734	     -2.11466686	     41.08432892	      4.18679057	     56.25874902	    124.36821938	     90.89862124	     46.02164246	     -3.66925904	     69.37687321	    124.53815427	     85.77486907
      3.93333330	      5.00738249	      5.84141616	      0.68650424	      1.12858410	      0.86315003	      0.06249800	     48.22712495	    -11.92647787	      7.84138436	     20.46484801	      0.35717898	     -2.45908495	      3.46591324	     -7.49999987	     13.92315438	     13.92713082	     -4.32967289	     40.94813310	      0.71467975	     20.90680708	    -13.98913010	     -7.49999987	    -14.99672253	    -12.68814598	     -2.27959311	     40.72510492	      4.42973547	     56.05947228	    124.21987130	     98.08024455	     46.30458824	     -3.57364468	     69.58876429	    124.41963572	     91.25117194
      3.95000000	      4.90177592	      6.50499729	      0.87092461	      1.12875435	      0.86330497	      0.06266911	     48.60273833	    -12.58525315	      8.44560752	     20.36931161	      0.35551155	     -2.75801070	      3.57696021	     -7.49999987	     14.65015191	     14.75726383	     -4.01738551	     42.02524697	      0.73347893	     21.67036088	    -14.01222330	     -7.49999987	    -14.98992778	    -13.38049233	     -2.28274477	     40.65119172	      4.55771530	     56.50106739	    124.62987457	     97.46512551	     46.11159518	     -3.66766065	     69.70402034	    124.59207424	     90.46056708
      3.96666670	      4.62267528	      6.99730973	      0.80002207	      1.13338162	      0.85732642	      0.06136118	     49.14907288	    -12.92093353	      9.27840713	     20.46532737	      0.35718735	     -3.14240239	      3.12468844	     -7.49999987	     15.76399386	     15.44899519	     -3.77661760	     43.42017557	      0.75782503	     22.54624094	    -14.01950649	     -7.49999987	    -14.53927401	    -13.91649339	     -2.02469332	     40.60497275	      4.76631852	     56.86465350	    125.14117567	     97.53963795	     46.13635874	     -3.18432353	     69.73208739	    124.91137886	     90.64749986
      3.98333330	      4.45481169	      7.52571055	      0.82181519	      1.13356845	      0.85451008	      0.06200887	     49.55927053	    -13.35055290	      9.88509040	     20.60149057	      0.35956384	     -3.54244304	      2.83738485	     -7.49999987	     16.65556300	     16.27817654	     -3.44049239	     44.64637578	      0.77922626	     23.28043305	    -14.35439248	     -7.49999987	    -14.21795128	    -14.48148755	     -1.90820902	     40.51445829	      4.96946922	     57.20011646	    125.37958837	     96.85590585	     46.10523964	     -2.73858609	     69.43942273	    125.31253327	     89.63362147
      4.00000000	      4.48836263	      8.11032343	      0.93911857	      1.13190953	      0.85070260	      0.06203344	     49.80435756	    -13.89166138	     10.32727862	     20.89208385	      0.36463565	     -4.32332923	      2.44736564	     -7.49999987	     17.44464195	     17.13204707	     -3.26669286	     45.91326293	      0.80133761	     24.06492021	    -14.66779684	     -7.49999987	    -14.23227460	    -15.08193225	     -2.04382430	     40.71176655	      5.34019279	     57.43454215	    125.16104142	     95.47122190	     46.20244423	     -2.83349999	     69.33759774	    124.88024312	     88.22466131
      4.01666670	      4.70077914	      8.67581623	      0.98847386	      1.13192658	      0.85056234	      0.06245194	     49.66965140	    -14.40060387	     10.65280349	     20.93616286	      0.36540497	     -5.11436925	      2.13221930	     -7.49999987	     17.75976300	     18.01935721	     -2.92917340	     46.70391639	      0.81513711	     24.57793283	    -15.01979542	     -7.49999987	    -14.53096972	    -15.49645890	     -2.04078668	     41.20562363	      5.35713908	     57.91576500	    124.45344663	     95.72558975	     46.75762284	     -3.16112437	     70.05452357	    125.27893053	     88.31105436
      4.03333330	      4.88042517	      9.07500933	      1.01525927	      1.13115042	      0.84790263	      0.06325623	     49.50010236	    -14.79212329	     10.69480714	     20.95415308	      0.36571896	     -5.85831186	      1.94549645	     -7.49999987	     18.08822415	     18.62893662	     -2.83088254	     47.50841733	      0.82917830	     24.83662327	    -15.47434804	     -7.49999987	    -14.86637536	    -15.77767456	     -1.95863265	     41.47645365	      5.29560592	     58.36895507	    124.80497488	     97.45276367	     46.92151857	     -3.28120240	     70.31449641	    125.30246601	     90.84017267
      4.05000000	      4.71791219	      9.53154711	      1.07414168	      1.13061001	      0.84353345	      0.06312800	     49.81228789	    -15.22991904	     10.88695839	     20.99189748	      0.36637773	     -6.60720132	      1.77461738	     -7.49999987	     18.87686046	     19.24587702	     -2.91612299	     48.41299801	      0.84496622	     25.02951892	    -15.89162277	     -7.49999987	    -14.71940679	    -16.13583145	     -2.10748714	     41.47781084	      5.44667478	     58.85928764	    124.97686831	     95.71501608	     46.92783985	     -3.47763726	     70.72420006	    125.79002809	     89.07755363
      4.06666670	      4.68783123	      9.91340739	      1.19235115	      1.12911137	      0.83741948	      0.06333887	     49.98560370	    -15.61234865	     11.13464922	     21.07824605	      0.36788479	     -7.06350372	      1.45489208	     -7.49999987	     19.54024661	     19.73086195	     -2.95768120	     49.42803433	      0.86268194	     25.05686367	    -16.59065799	     -7.49999987	    -14.87374352	    -16.35972279	     -2.37520356	     41.78828183	      5.63952470	     58.94581450	    124.76519977	     98.65505048	     47.03842828	     -3.65461364	     70.78046183	    126.70464891	     92.32633513
      4.08333330	      4.52641268	     10.25778782	      1.36138295	      1.12885332	      0.83142930	      0.06344768	     50.23574653	    -15.98608169	     11.33021294	     21.10248467	      0.36830784	     -7.26384351	      1.44468357	     -7.49999987	     20.28219002	     20.15819006	     -2.97898246	     50.32839573	      0.87839621	     25.22929622	    -16.97083015	     -7.49999987	    -14.81496340	    -16.61207526	     -2.61107579	     42.07320853	      6.09409418	     58.85282856	    124.42893431	     98.65232161	     47.11838666	     -3.83551040	     70.17801621	    127.38835031	     92.73561233
      4.10000000	      4.03823444	     10.61961425	      1.58634281	      1.12744977	      0.82149214	      0.06332683	     51.06226743	    -16.32213189	     11.76955690	     21.45227575	      0.37441284	     -7.29877926	      1.34624792	     -7.49999987	     21.50959332	     20.61441809	     -3.04219350	     51.46066334	      0.89815801	     25.44830616	    -17.34260872	     -7.49999987	    -14.38766690	    -16.90315560	     -3.25490287	     42.27531987	      6.48681017	     58.32694051	    124.10964724	     98.79216722	     47.01026639	     -4.39529270	     69.07995797	    127.15036674	     92.84362789
      4.11666670	      3.64801623	     10.85557118	      1.80460877	      1.12808774	      0.81883997	      0.06353126	     51.68999545	    -16.60020048	     12.03619332	     21.75329168	      0.37966656	     -7.25454930	      1.36128149	     -7.49999987	     22.55696972	     20.98643414	     -2.97462086	     52.51922150	      0.91663334	     25.77673943	    -17.62627003	     -7.49999987	    -14.02082693	    -17.03705003	     -3.46421664	     42.35888908	      6.49201365	     57.57693821	    124.10831030	     96.75502332	     46.37322967	     -5.11183376	     69.01486838	    127.03393480	     90.76980100
      4.13333330	      3.31334134	     11.04721350	      1.98144787	      1.12766571	      0.81845275	      0.06347975	     52.28205835	    -16.77282490	     12.41225539	     22.08487362	      0.38545376	     -7.09781319	      1.16110202	     -7.49999987	     23.57753151	     21.23251370	     -3.08985088	     53.53744424	      0.93440468	     25.87416268	    -17.99081104	     -7.49999987	    -13.86912714	    -17.15932429	     -3.76344623	     42.48850906	      6.35402111	     57.44259500	    124.40058146	     95.72069160	     45.93428118	     -5.56390875	     69.15442458	    126.41976909	     89.66667087
      4.15000000	      2.76175684	     11.13653927	      2.09821603	      1.12788058	      0.81175583	      0.06352558	     53.13457946	    -16.76517401	     12.74339999	     22.46160821	      0.39202902	     -7.15995214	      0.96328113	     -7.49999987	     24.98593066	     21.32858717	     -3.35740589	     54.81264147	      0.95666107	     26.11474218	    -18.39478046	     -7.49999987	    -13.27170086	    -17.17575742	     -3.63159513	     42.59046057	      6.16273049	     56.95968121	    124.79456144	     98.74085251	     45.86263753	     -5.68879214	     69.08408167	    125.66256797	     93.44759413
